<svg id="Layer_1" height="512" viewBox="0 0 512 512" width="512" xmlns="http://www.w3.org/2000/svg" xmlns:xlink="http://www.w3.org/1999/xlink" data-name="Layer 1"><linearGradient id="linear-gradient" gradientUnits="userSpaceOnUse" x1="167.5" x2="167.5" y1="22" y2="479.69"><stop offset="0" stop-color="#00efd1"/><stop offset="1" stop-color="#00acea"/></linearGradient><linearGradient id="linear-gradient-2" x1="255.5" x2="255.5" xlink:href="#linear-gradient" y1="22" y2="479.69"/><linearGradient id="linear-gradient-3" x1="344.5" x2="344.5" xlink:href="#linear-gradient" y1="22" y2="479.69"/><linearGradient id="linear-gradient-11" x1="300" x2="300" xlink:href="#linear-gradient" y1="22" y2="479.69"/><linearGradient id="linear-gradient-12" x1="256.5" x2="256.5" xlink:href="#linear-gradient" y1="22" y2="479.69"/><path d="m200 160a6 6 0 0 0 -6-6h-53a6 6 0 0 0 -6 6v53a6 6 0 0 0 6 6h53a6 6 0 0 0 6-6zm-12 47h-41v-41h41z" fill="url(#linear-gradient)"/><path d="m288 160a6 6 0 0 0 -6-6h-53a6 6 0 0 0 -6 6v53a6 6 0 0 0 6 6h53a6 6 0 0 0 6-6zm-53 6h42v41h-42z" fill="url(#linear-gradient-2)"/><path d="m377 160a6 6 0 0 0 -6-6h-53a6 6 0 0 0 -6 6v53a6 6 0 0 0 6 6h53a6 6 0 0 0 6-6zm-12 47h-41v-41h41z" fill="url(#linear-gradient-3)"/><path d="m200 236a6 6 0 0 0 -6-6h-53a6 6 0 0 0 -6 6v53a6 6 0 0 0 6 6h53a6 6 0 0 0 6-6zm-12 47h-41v-41h41z" fill="url(#linear-gradient)"/><path d="m288 236a6 6 0 0 0 -6-6h-53a6 6 0 0 0 -6 6v53a6 6 0 0 0 6 6h53a6 6 0 0 0 6-6zm-53 6h42v41h-42z" fill="url(#linear-gradient-2)"/><path d="m377 236a6 6 0 0 0 -6-6h-53a6 6 0 0 0 -6 6v53a6 6 0 0 0 6 6h53a6 6 0 0 0 6-6zm-12 47h-41v-41h41z" fill="url(#linear-gradient-3)"/><path d="m200 312a6 6 0 0 0 -6-6h-53a6 6 0 0 0 -6 6v53a6 6 0 0 0 6 6h53a6 6 0 0 0 6-6zm-12 47h-41v-41h41z" fill="url(#linear-gradient)"/><path d="m288 312a6 6 0 0 0 -6-6h-53a6 6 0 0 0 -6 6v53a6 6 0 0 0 6 6h53a6 6 0 0 0 6-6zm-53 6h42v41h-42z" fill="url(#linear-gradient-2)"/><path d="m377 312a6 6 0 0 0 -6-6h-53a6 6 0 0 0 -6 6v53a6 6 0 0 0 6 6h53a6 6 0 0 0 6-6zm-12 47h-41v-41h41z" fill="url(#linear-gradient-3)"/><path d="m200 388a6 6 0 0 0 -6-6h-53a6 6 0 0 0 -6 6v53a6 6 0 0 0 6 6h53a6 6 0 0 0 6-6zm-12 47h-41v-41h41z" fill="url(#linear-gradient)"/><path d="m377 388a6 6 0 0 0 -6-6h-142a6 6 0 0 0 -6 6v53a6 6 0 0 0 6 6h142a6 6 0 0 0 6-6zm-12 47h-130v-41h130z" fill="url(#linear-gradient-11)"/><path d="m378 71a6 6 0 0 0 -6-6h-231a6 6 0 0 0 -6 6v53a6 6 0 0 0 6 6h231a6 6 0 0 0 6-6zm-13 47h-218v-41h218z" fill="url(#linear-gradient-12)"/><path d="m414 70a46 46 0 0 0 -46-46h-225a46 46 0 0 0 -46 46v371a46 46 0 0 0 46 46h225a46 46 0 0 0 46-46zm-12 371a34 34 0 0 1 -34 34h-225a34 34 0 0 1 -34-34v-371a34 34 0 0 1 34-34h225a34 34 0 0 1 34 34z" fill="url(#linear-gradient-2)"/></svg>