<?xml version="1.0" encoding="iso-8859-1"?>
<!-- Generator: Adobe Illustrator 19.0.0, SVG Export Plug-In . SVG Version: 6.00 Build 0)  -->
<svg version="1.1" id="Capa_1" xmlns="http://www.w3.org/2000/svg" xmlns:xlink="http://www.w3.org/1999/xlink" x="0px" y="0px"
	 viewBox="0 0 416.949 416.949" style="enable-background:new 0 0 416.949 416.949;" xml:space="preserve">
<g>
	
		<linearGradient id="SVGID_1_" gradientUnits="userSpaceOnUse" x1="152.4745" y1="454.475" x2="152.4745" y2="-28.065" gradientTransform="matrix(1 0 0 -1 0 418.95)">
		<stop  offset="0" style="stop-color:#00EFD1"/>
		<stop  offset="1" style="stop-color:#00ACEA"/>
	</linearGradient>
	<path style="fill:url(#SVGID_1_);" d="M130.474,151.475h44c5.523,0,10-4.477,10-10s-4.477-10-10-10h-44c-5.523,0-10,4.477-10,10
		S124.952,151.475,130.474,151.475z"/>
	
		<linearGradient id="SVGID_2_" gradientUnits="userSpaceOnUse" x1="152.4745" y1="454.475" x2="152.4745" y2="-28.065" gradientTransform="matrix(1 0 0 -1 0 418.95)">
		<stop  offset="0" style="stop-color:#00EFD1"/>
		<stop  offset="1" style="stop-color:#00ACEA"/>
	</linearGradient>
	<path style="fill:url(#SVGID_2_);" d="M174.474,220.475h-44c-5.523,0-10,4.477-10,10s4.477,10,10,10h44c5.523,0,10-4.477,10-10
		S179.997,220.475,174.474,220.475z"/>
	
		<linearGradient id="SVGID_3_" gradientUnits="userSpaceOnUse" x1="152.4745" y1="454.475" x2="152.4745" y2="-28.065" gradientTransform="matrix(1 0 0 -1 0 418.95)">
		<stop  offset="0" style="stop-color:#00EFD1"/>
		<stop  offset="1" style="stop-color:#00ACEA"/>
	</linearGradient>
	<path style="fill:url(#SVGID_3_);" d="M174.474,307.475h-44c-5.523,0-10,4.477-10,10c0,5.523,4.477,10,10,10h44
		c5.523,0,10-4.477,10-10C184.474,311.952,179.997,307.475,174.474,307.475z"/>
</g>
<g>
	
		<linearGradient id="SVGID_4_" gradientUnits="userSpaceOnUse" x1="208.4745" y1="454.475" x2="208.4745" y2="-28.065" gradientTransform="matrix(1 0 0 -1 0 418.95)">
		<stop  offset="0" style="stop-color:#00EFD1"/>
		<stop  offset="1" style="stop-color:#00ACEA"/>
	</linearGradient>
	<path style="fill:url(#SVGID_4_);" d="M394.209,212.239l-89.073-47.473c-2.99-1.586-6.577-1.566-9.549,0.055l-8.113,4.424V55.267
		c0-11.754-7.452-28.48-43.184-41.412C219.602,4.92,187.006,0,152.465,0s-67.115,4.92-91.8,13.855
		C24.93,26.787,17.474,43.513,17.474,55.267v257.908c0,11.759,7.468,28.49,43.2,41.418c24.681,8.931,57.286,13.849,91.836,13.849
		c20.261,0.069,40.485-1.747,60.41-5.427c4.143-0.795,8.167-1.686,12.076-2.645c14.291,22.303,34.865,39.877,59.128,50.505
		l12.022,5.241c2.537,1.106,5.418,1.111,7.959,0.014l13.494-5.841c49.616-20.856,81.885-69.434,81.875-123.255v-65.97
		C399.487,217.375,397.462,213.98,394.209,212.239L394.209,212.239z M208.796,212.295c-3.234,1.741-5.271,5.097-5.322,8.769v36.893
		c-16.91,2.784-34.022,4.161-51.16,4.117c-32.288,0-62.372-4.5-84.927-12.656c-18.244-6.602-29.913-15.477-29.913-22.611v-55.532
		c7.282,4.598,15.066,8.348,23.2,11.177c24.681,8.931,57.286,13.849,91.836,13.849s67.114-4.918,91.8-13.849
		c8.122-2.83,15.894-6.58,23.164-11.177v8.928L208.796,212.295z M67.448,32.662C90.009,24.496,120.21,20,152.49,20
		s62.481,4.5,85.043,12.662c18.247,6.6,30.038,15.477,30.038,22.605s-11.791,16-30.038,22.606
		c-22.559,8.165-52.759,12.662-85.043,12.662s-62.482-4.5-85.042-12.662c-18.247-6.6-30.038-15.478-30.038-22.606
		S49.201,39.266,67.448,32.662z M37.474,85.501c7.283,4.596,15.066,8.345,23.2,11.174c24.689,8.935,57.292,13.856,91.833,13.856
		s67.1-4.921,91.792-13.856c8.126-2.829,15.902-6.578,23.175-11.175v55.537c0,7.134-11.741,16.01-29.985,22.611
		c-22.555,8.161-52.734,12.656-85.024,12.656s-62.447-4.5-85-12.656c-18.246-6.601-29.991-15.473-29.991-22.611L37.474,85.501z
		 M209.139,343.375c-18.685,3.443-37.65,5.14-56.649,5.069c-32.288,0-62.46-4.494-85.015-12.656c-18.244-6.6-30-15.477-30-22.611
		v-56.129c7.282,4.597,15.066,8.347,23.199,11.177c24.682,8.931,57.111,13.849,91.661,13.849c17.12,0.038,34.218-1.251,51.139-3.855
		v10.048c0.061,18.557,3.992,36.896,11.542,53.848C213.026,342.553,211.192,342.975,209.139,343.375L209.139,343.375z
		 M379.474,287.034c0.001,45.797-27.472,87.124-69.7,104.849c-0.019,0.009-0.037,0.019-0.054,0.03l-9.573,4.137l-8.022-3.5
		c-22.223-9.736-40.765-26.299-52.936-47.287c-0.429-1.005-1.013-1.937-1.73-2.761c-9.116-16.627-13.924-35.273-13.985-54.235
		v-61.28l76.833-42.03l79.167,42.11V287.034z"/>
	
		<linearGradient id="SVGID_5_" gradientUnits="userSpaceOnUse" x1="303.3429" y1="454.475" x2="303.3429" y2="-28.065" gradientTransform="matrix(1 0 0 -1 0 418.95)">
		<stop  offset="0" style="stop-color:#00EFD1"/>
		<stop  offset="1" style="stop-color:#00ACEA"/>
	</linearGradient>
	<path style="fill:url(#SVGID_5_);" d="M271.986,281.775c-3.586-4.201-9.898-4.699-14.098-1.113
		c-4.201,3.586-4.699,9.898-1.114,14.098l23.428,27.436c0.105,0.123,0.222,0.23,0.332,0.347c0.125,0.134,0.247,0.271,0.378,0.4
		c0.131,0.129,0.291,0.256,0.438,0.381s0.271,0.238,0.413,0.346c0.142,0.108,0.317,0.221,0.478,0.328
		c0.144,0.1,0.286,0.2,0.434,0.289c0.17,0.1,0.346,0.187,0.52,0.278c0.148,0.077,0.293,0.16,0.443,0.23
		c0.184,0.084,0.373,0.151,0.561,0.223c0.148,0.058,0.294,0.123,0.445,0.173c0.2,0.066,0.4,0.113,0.6,0.166
		c0.147,0.039,0.292,0.087,0.441,0.119c0.211,0.046,0.426,0.073,0.64,0.105c0.14,0.021,0.279,0.052,0.421,0.067
		c0.26,0.028,0.521,0.035,0.783,0.043c0.1,0,0.19,0.015,0.286,0.015c0.284,0,0.568-0.013,0.852-0.037c0.052,0,0.1-0.014,0.154-0.019
		c0.23-0.024,0.46-0.05,0.689-0.09c0.09-0.015,0.18-0.039,0.271-0.057c0.187-0.038,0.375-0.074,0.56-0.123
		c0.111-0.029,0.221-0.067,0.332-0.1c0.162-0.049,0.325-0.1,0.486-0.152c0.122-0.043,0.241-0.1,0.361-0.144
		c0.147-0.058,0.294-0.115,0.438-0.18c0.126-0.058,0.249-0.125,0.373-0.188s0.272-0.135,0.4-0.21
		c0.128-0.075,0.247-0.151,0.369-0.228c0.122-0.077,0.257-0.158,0.382-0.245c0.125-0.087,0.235-0.173,0.351-0.261
		c0.093-0.071,0.19-0.135,0.281-0.209l54.564-44.391c4.256-3.52,4.853-9.823,1.333-14.079c-3.48-4.208-9.691-4.846-13.954-1.435
		l-46.983,38.225L271.986,281.775z"/>
</g>
<g>
</g>
<g>
</g>
<g>
</g>
<g>
</g>
<g>
</g>
<g>
</g>
<g>
</g>
<g>
</g>
<g>
</g>
<g>
</g>
<g>
</g>
<g>
</g>
<g>
</g>
<g>
</g>
<g>
</g>
</svg>
