<?xml version="1.0"?>
<svg xmlns="http://www.w3.org/2000/svg" xmlns:xlink="http://www.w3.org/1999/xlink" id="Layer_1" data-name="Layer 1" viewBox="0 0 512 512" width="512" height="512"><defs><linearGradient id="linear-gradient" x1="256" y1="24.712" x2="256" y2="481.004" gradientUnits="userSpaceOnUse"><stop offset="0" stop-color="#00efd1"/><stop offset="1" stop-color="#00acea"/></linearGradient><linearGradient id="linear-gradient-2" x1="375.718" y1="24.712" x2="375.718" y2="481.004" xlink:href="#linear-gradient"/><linearGradient id="linear-gradient-3" x1="259.758" y1="24.712" x2="259.758" y2="481.004" xlink:href="#linear-gradient"/></defs><title>Camera</title><path d="M474,88.948A50.948,50.948,0,0,0,423.052,38H88.948A50.948,50.948,0,0,0,38,88.948v334.1A50.948,50.948,0,0,0,88.948,474h334.1A50.948,50.948,0,0,0,474,423.052ZM89.039,54H422.961A35.143,35.143,0,0,1,458,89.039V156H345.254a130.006,130.006,0,0,0-170.991,0H54V89.039A35.143,35.143,0,0,1,89.039,54Zm170.719,86.131A114.258,114.258,0,1,1,145.5,254.39,114.388,114.388,0,0,1,259.758,140.131ZM422.961,458H89.039A35.143,35.143,0,0,1,54,422.961V172H158.784c-18.3,23-29.284,51.151-29.284,82.291,0,71.824,58.433,130.307,130.258,130.307S390.016,326.09,390.016,254.266c0-31.139-10.988-59.266-29.284-82.266H458V422.961A35.143,35.143,0,0,1,422.961,458Z" style="fill:url(#linear-gradient)"/><path d="M375.718,138.376a34.306,34.306,0,1,0-34.306-34.306A34.344,34.344,0,0,0,375.718,138.376Zm0-52.611a18.306,18.306,0,1,1-18.306,18.3A18.326,18.326,0,0,1,375.718,85.765Z" style="fill:url(#linear-gradient-2)"/><path d="M259.758,343.715a89.326,89.326,0,1,0-89.326-89.325A89.427,89.427,0,0,0,259.758,343.715Zm0-162.652a73.326,73.326,0,1,1-73.326,73.327A73.41,73.41,0,0,1,259.758,181.063Z" style="fill:url(#linear-gradient-3)"/></svg>
