<svg height="425pt" viewBox="-3 0 425 425.89709" width="425pt" xmlns="http://www.w3.org/2000/svg" xmlns:xlink="http://www.w3.org/1999/xlink"><linearGradient id="a"><stop offset="0" stop-color="#00efd1"/><stop offset="1" stop-color="#00acea"/></linearGradient><linearGradient id="b" gradientUnits="userSpaceOnUse" x1="209.511739" x2="209.511739" xlink:href="#a" y1="-20.856" y2="444.665"/><linearGradient id="c" gradientUnits="userSpaceOnUse" x1="209.530739" x2="209.530739" xlink:href="#a" y1="-20.856" y2="444.665"/><path d="m209.824219 0h-.277344v.0507812c-80.640625-.09375-154.132813 46.2460938-188.808594 119.0507808-34.671875 72.808594-24.332031 159.070313 26.566407 221.621094l-31.777344 74.015625c-1.15625 2.703125-.738282 5.820313 1.085937 8.125 1.828125 2.300781 4.765625 3.421875 7.664063 2.914063l114.546875-20.164063c22.40625 8.234375 46.09375 12.425781 69.964843 12.386719h.769532c115.328125.070312 208.894531-93.34375 209.015625-208.675781.15625-115.257813-93.484375-209.324219-208.75-209.324219zm136.023437 345.730469c-36.121094 36.183593-85.195312 56.441406-136.320312 56.269531h-.710938c-22.679687.042969-45.179687-4.066406-66.382812-12.121094-1.351563-.496094-2.808594-.625-4.226563-.363281l-102.121093 17.925781 27.898437-64.925781c1.207031-2.804687.710937-6.050781-1.277344-8.363281-29.800781-34.734375-46.183593-78.988282-46.1875-124.753906.011719-106.570313 86.722657-193.285157 193.296875-193.296876 106.433594.148438 192.902344 86.820313 192.757813 193.253907.066406 51.210937-20.359375 100.320312-56.726563 136.375zm0 0" fill="url(#b)"/><path d="m290.890625 222.488281c-4.199219-4.195312-9.902344-6.542969-15.84375-6.507812-5.9375.03125-11.613281 2.441406-15.765625 6.6875l-10.335938 10.5625c-6.035156 6.214843-7.921874 15.367187-4.839843 23.464843l-8.964844 8.964844c-1.136719 1.164063-2.691406 1.824219-4.320313 1.832032-1.625.011718-3.1875-.628907-4.339843-1.773438l-69.78125-69.78125c-.089844-.089844-.179688-.183594-.261719-.273438-2.046875-2.421874-1.90625-6.011718.328125-8.265624l8.820313-8.820313c8.261718 3.316406 17.703124 1.382813 24-4.910156l10.523437-10.519531c8.679687-8.683594 8.679687-22.753907 0-31.433594l-48.761719-48.765625c-8.683594-8.679688-22.757812-8.679688-31.4375 0l-10.519531 10.523437c-7.5625 7.582032-8.644531 19.480469-2.582031 28.304688l-17.789063 17.792968c-21.457031 21.457032-21.457031 56.25 0 77.707032l116.191407 116.1875c21.460937 21.460937 56.253906 21.460937 77.710937 0l17.824219-17.699219c3.738281 2.71875 8.234375 4.199219 12.855468 4.234375h.128907c5.957031-.046875 11.644531-2.5 15.765625-6.808594l10.328125-10.621094c8.476562-8.734374 8.398437-22.648437-.171875-31.289062zm-170.183594-117.703125 10.523438-10.523437c2.433593-2.425781 6.371093-2.425781 8.804687 0l48.761719 48.765625c2.429687 2.433594 2.429687 6.371094 0 8.804687l-10.519531 10.523438c-2.433594 2.425781-6.375 2.425781-8.804688 0l-48.765625-48.761719c-2.425781-2.433594-2.425781-6.375 0-8.808594zm150.902344 217.367188c-15.210937 15.210937-39.871094 15.210937-55.082031 0l-116.191406-116.1875c-15.207032-15.210938-15.207032-39.871094 0-55.082032l17.519531-17.519531 35.160156 35.164063-7.5 7.5c-8.222656 8.242187-8.6875 21.4375-1.0625 30.238281.34375.386719.699219.761719 1 1.054687l69.769531 69.769532c8.636719 8.566406 22.570313 8.542968 31.175782-.054688l7.632812-7.632812 35.164062 35.164062zm56.777344-30.828125-10.328125 10.5625c-1.164063 1.1875-2.753906 1.863281-4.417969 1.871093-1.664063.011719-3.261719-.644531-4.4375-1.820312l-48.761719-48.765625c-2.402344-2.414063-2.425781-6.3125-.050781-8.757813l10.332031-10.550781c1.15625-1.195312 2.75-1.867187 4.414063-1.863281h.035156c1.652344-.007812 3.238281.644531 4.402344 1.8125l48.761719 48.757812c2.402343 2.414063 2.421874 6.308594.050781 8.753907zm0 0" fill="url(#c)"/></svg>